<?xml version="1.0" encoding="UTF-8"?>
<!DOCTYPE svg PUBLIC "-//W3C//DTD SVG 1.1//EN" "http://www.w3.org/Graphics/SVG/1.1/DTD/svg11.dtd">
<!-- Creator: CorelDRAW 2021 (64-Bit) -->
<svg xmlns="http://www.w3.org/2000/svg" xml:space="preserve" width="300px" height="300px" version="1.1" style="shape-rendering:geometricPrecision; text-rendering:geometricPrecision; image-rendering:optimizeQuality; fill-rule:evenodd; clip-rule:evenodd"
viewBox="0 0 30000 30000.1"
 xmlns:xlink="http://www.w3.org/1999/xlink"
 xmlns:xodm="http://www.corel.com/coreldraw/odm/2003">
 <defs>
  <style type="text/css">
   <![CDATA[
    .str0 {stroke:#F4820C;stroke-width:28.8;stroke-miterlimit:22.9256}
    .fil0 {fill:#026F93}
    .fil4 {fill:#336C83}
    .fil2 {fill:#E49A47}
    .fil1 {fill:#F4820C}
    .fil3 {fill:#F4DBBB}
   ]]>
  </style>
 </defs>
 <g id="Capa_x0020_1">
  <metadata id="CorelCorpID_0Corel-Layer"/>
  <g id="_2796572024800">
   <g id="_2038720430336">
    <path class="fil0" d="M19551.9 13876.1c-59.5,228.2 10.9,81.5 -143.4,258.3 -77.2,88.7 -107.2,103.7 -177.4,191.5 304.2,421.6 582.6,69.1 578.9,446.2 89.6,23.4 357.5,31.6 532.7,128.3 -74.3,147.6 -3644.4,2921.2 -4314.1,3451.1l-6881.6 5430.8c-197.2,156.9 -271.1,122.6 -356.3,353 215.5,312.1 1342.4,758 1783.1,897.3 406.6,129 576.3,245.5 974.2,360.6 1737.9,502.4 3115.8,529.6 4960.4,497.8 224.4,-3.9 390.9,-11.2 585.8,-49.4 280.1,-54.8 184.4,-87.4 520.6,-155.9 341.9,-70 814,-124.5 1153.1,-223.8 1033.6,-302.8 1896,-761.6 2783.2,-1195.5l1580.2 -1051.8c2506,-1988.9 4161.3,-5039.2 4064.7,-8604.8 -33.9,-1257.8 -466.1,-2855.5 -1002.9,-3999.2 -341,-726.3 -1554.6,-2581.1 -2137.6,-2968.9 -285.1,153.9 -452.6,395.5 -769.8,643.8 -227,177.9 -640,459 -687.7,719.3l1989.3 4.4c-54.1,169.4 -2185.2,2186.1 -2493.2,2451.2 -270.5,232.8 -2375.7,2137.8 -2542.2,2415.7z"/>
    <path class="fil0" d="M7432.9 23213.2c140.3,-166.8 882.7,-2955.5 1014.6,-3443.3 149.8,-553.7 947.6,-3133.6 957.8,-3477.6l-1178.4 -13.4c-1.3,-273.5 564.7,-1479.6 704.3,-1809.8l2319.3 -5314.3 -1687.3 138 1916.9 -4086.1c121.9,-214 249,-307 263.8,-636.6 -827.5,164.6 -2125.4,812.9 -2855,1211.1 -2403.6,1312.3 -4575.1,3955.3 -5217,6532.5 -566,2271.1 -520.1,4437.7 375.6,6451.7 229.9,517.2 370.7,881.2 641.5,1292.6 284.6,432.7 399.9,742.3 764.5,1183.4 242,292.6 1515.4,1897.3 1979.3,1971.9l0.1 -0.1z"/>
    <path class="fil1" d="M13527.9 7501c-17.9,419.6 -239.8,612.4 -360.2,957.6l-2106.1 4757.9c-169.4,398.7 -765.5,1639.5 -755.9,1888.3 865,36.4 1105.8,-90.9 1093.9,301.4 -0.6,16.2 -41.6,199.4 -54.4,246.6 -84.8,319.3 -424.2,1094.6 -381.9,1344.7 13.5,667.9 -368.4,1170.5 -460,1726.7 -228.9,1386.9 -422.9,740.2 -392.5,1866 413.9,10.5 331,22.2 572.7,-142.6l1149.3 -847.2c108.9,-100.9 184,-207.9 302.2,-314.6 63.8,-57.6 1006.2,-657.9 1493.5,-1121.1 706.8,-672.5 1406.9,-1097.6 1461.3,-1150.3 430.3,-416.3 957.6,-641.5 1032.7,-959.6l-216.4 -67.2c-285.6,-52.1 -280.1,18.7 -675.8,-145.1 -9.9,-242.5 15,-139.7 200.8,-438.3 292.5,-469.7 123.5,23.6 802.1,-679.5 43.8,-45.5 146.3,-153.9 186.4,-187.1 152.1,-126.4 121,-115.9 333,-156.2 192.1,-242 494.6,-432.3 645.3,-615.3 28.5,-249.8 142.2,-292.1 322.4,-463.7 144.1,-137.7 236.3,-200.8 388.6,-355.4 223.7,-227.2 165.5,-133 319.2,-423 250.7,-474.4 150.1,160 757.1,-664.5 7.3,-10.2 17.3,-25 24.9,-34.8l285.5 -263c36.2,-30.7 95.4,-83.1 99,-86.2 145.3,-121.7 269.8,-208.4 417.2,-327.7 195.9,-159.1 290.6,-189 314.3,-460.4 -246.8,-188.7 -1116.9,-420.8 -1296.5,-519.8 6.4,-242.4 249.9,-423.7 409.8,-559.7l1004.8 -856.2c152.1,-140.5 360.8,-314.8 561.8,-373 39.7,-195.8 591.3,-699 742.1,-795.9 752.3,-484 1324,-1188.1 -186.4,-1143.6 -234.3,286.3 -209.3,398 -509.6,583.6 -1246.6,771.2 -481.8,569.4 -1127.2,987.3 -213.8,138.5 -365.3,328.3 -524,526.1l-1029.6 1124.4c-149.7,175.3 -132.2,28.8 -568.5,483.8 -165.9,172.8 -395.7,380.9 -450.7,609.9 515.7,96.3 755.5,18.2 673.6,347.3l-244 402.9c-87.7,71.3 -93.7,72.1 -174.4,142.3 -304.5,264.4 -399.6,416.9 -673.3,684 -277.5,271 -459.4,342.6 -728.6,633l-1361.8 1353.8c-117.8,115.2 -192.7,224.1 -333.6,343.6 -714.6,605.1 -303.2,395 -612.7,738 -193,213.7 -926.1,826.7 -1219,892.2 -192.1,141.3 28.4,73.8 -282.1,119.8 69.3,-662.5 2207,-4797.2 2207.7,-5448.8 -1165.5,-23.9 -1287.2,-51.6 -965.5,-577.6 137,-223.8 129.3,-305 225.4,-572.9l1514.9 -3113.6c79.7,-950.9 1790.8,-2276.1 196.8,-2417.9 -435.7,-38.7 -1530.6,-85 -1895.5,192.8 -660.7,502.9 -665.8,1179.3 -937,1668.9 -197.8,358.4 -591.3,878.7 -612.1,1260.7 247.5,14.3 485.3,15.9 733.1,1.4 847.7,-50.5 606.7,-26.4 663.9,97.1l0 -0.3z"/>
    <path class="fil1 str0" d="M11918.9 7148.8c93.8,-50.1 42,-0.8 130.9,-121.7l896.1 -1689.4c604.8,-1219.1 300.4,-1060 1715.6,-1181.5 641.5,-55.3 1325.4,45.8 2015.9,39 -13.4,368.6 -408.8,969.5 -604.7,1333.4l-694 1169.5 -1514.9 3113.6c-96.1,267.9 -88.3,349.1 -225.4,572.9 -321.7,526.1 -200.1,553.7 965.5,577.6 -0.6,651.6 -2138.4,4786.3 -2207.7,5448.9 310.5,-46.2 90,21.3 282.1,-119.9 77.8,-168.1 2264.7,-2268.9 2649,-2647.4 472.5,-464.9 854.5,-865.3 1338.5,-1315.1 1975.9,-1835.8 961.7,-1243.7 365.9,-1473.2l123.5 -298.4c-232.4,68 -98,-32.2 -210,108.6 -93.6,117.7 -58.9,135.2 -68.9,285.5 356,136.3 377.4,-4.2 649.5,197.8 -79.1,204.8 -861.1,957.6 -1011.2,1047.1 -293.6,175.3 -319.6,272.9 -516.1,537.7l-2111.6 2082.2c-220.9,227.1 -265.1,428.6 -686.6,427.6 -8.4,-717.3 647.3,-1401.3 780.7,-1776.9l273.1 -631.4c160.5,-400.1 96.3,-364.2 358.5,-768.5 3.9,-6 14.8,-19.8 18.3,-25.8 103.1,-164.8 372.3,-673.6 376.2,-901 4.8,-273.1 -165.9,-343.6 -289.4,-536.7 -1319.6,-40 -698.3,-202.4 -421.7,-850.5 67.9,-159.1 116.5,-317.1 186.9,-470.9 302.5,-659.9 -70,-119.3 462.4,-818.7l101.7 -139.3c327.2,-514.2 -29.2,-594.4 800.4,-1723.2 228.9,-311.8 -48.6,-183.1 465.8,-1043.5 79.4,-132.5 141.5,-319.4 225.4,-436.4 204.3,-283.8 161.4,-20 227.4,-375.7 83.2,-446.8 130.3,-633.9 -139.3,-703.2 -18.2,-5 -37.5,-9.9 -57.9,-14.3 -19.9,-4.7 -203,-25 -234.7,-27.7 -890.6,-84 -2759.9,-314.8 -3173.8,435.8 -268.2,485.9 -460.3,818.3 -643,1362.2 -61.2,181 -641.6,845.8 -598.4,1350.8l0 0.1z"/>
    <path class="fil1 str0" d="M18781.7 8845.4l454.5 -330.3c83.8,-92.6 79.8,-111.6 155.2,-207.3l944.2 -982.9c234.3,-236.5 1325.9,-1355.7 1468.4,-1372.4 251.6,37.5 390.5,170.8 568.9,313.9 87.3,70 175.1,118.2 257.7,169.5 479.3,297.8 230.5,478.9 -626.1,1141.5 -208.4,161.3 -731.8,739.7 -998.2,801 -41.7,243.3 -212.9,279.5 -411.8,447.9 -183.4,155.3 -272.1,273.2 -450.5,414.1 -242.7,191.2 -830.3,597.9 -841.6,908.1 388,109.6 1281.8,35.6 1788.9,71.6 -38.1,297.6 -455.6,592.4 -842.2,956.6 -312.2,293.8 -2522.1,2454.1 -2851.2,2589.2 -150.7,183 -453.3,373.3 -645.3,615.2 -222,534 -1092.6,808 -1140.1,1355.9 282.7,88.9 653.2,99.6 1017.7,105.1 -31.7,203.8 -1374,1264 -1553.6,1389.4 -283.6,198.3 -335.5,311 -567.5,486.5l-1175.3 884.5c-185.3,158.8 -324.2,304 -540.1,449 -233.6,157.1 -475,304.4 -523.4,528.5 360.5,0 121.6,-5.8 351.5,-154.1 164.2,-106.2 186.9,-65.9 353,-158.3 229.6,-127.8 351.5,-470.1 1145.7,-966 738,-461.1 1186.8,-1052.8 1692.3,-1464.7 204.6,-166.5 372.3,-290.8 587.1,-468.8 81.3,-67.1 197.8,-161.5 266.3,-236.4 193,-210.3 161.6,-296.5 38.1,-390.8 -386.7,-173.8 -541.3,119.6 -839.1,-205.6 109.5,-378.5 177.6,31.4 704.9,-632.5 230.5,-289.9 405.9,-412.7 685.4,-679.3l1457.9 -1323.3c570.5,-470.6 491.1,-535.1 1083.6,-960.2 669.7,-479.9 435.7,-573.2 1037.5,-1002.6 172.2,-122.6 881.7,-805.7 169.4,-938.5 -379.3,-70.8 -855,0.8 -1066.7,-119.8 29.2,-295.1 158.6,-241.7 389.6,-422.1 375.6,-293.5 132.6,-326.1 792.7,-809.7 142.8,-104.5 398.9,-232.6 484.3,-324.9 191.2,-206.5 95.1,-203.3 372.4,-423.5l823.7 -791.5c218.6,-199.7 314.7,-194.8 274.6,-594.4 -392.7,-215 -315,-93.5 -633.1,-411.6 -10,-9.8 -22.4,-23 -33.1,-32.6 -629.6,-589.4 -810.5,-168.7 -1027.6,-26.4 -723.5,473.4 -198.8,209.8 -815.7,678.6 -266.3,202.9 -345.5,516.9 -705.5,831 -359.9,313.4 -682.2,795.9 -906.3,1000.1 -157.2,143.7 -153.7,-53.1 -171.9,293.2l0.4 0.1z"/>
    <path class="fil1 str0" d="M9619.1 20791.4c158.1,-71.6 16.9,117.4 149.8,-162.1 139.2,-292.9 890.8,-3328.9 1194.4,-3632 -42.2,-250.1 297.1,-1025.5 381.9,-1344.7 12.8,-47.2 53.8,-230.4 54.4,-246.6 11.9,-392.2 -228.9,-264.9 -1093.9,-301.5 -9.6,-248.7 586.5,-1489.5 755.9,-1888.3l2106.1 -4757.7c120.4,-345.3 342.2,-538.1 360.2,-957.7l-1641.9 105.6 33 -457.7c-218.2,30.4 -221.1,125.6 -210.2,365 26.8,597.9 727.6,276 1418.5,287.7 -8.6,471.4 -1213,3028.3 -1534.1,3624 -319.2,591.9 -1513.3,3254.9 -1473.6,3796 191.2,68.3 250.7,68.8 487.3,105l290.9 76.3c77.5,36.4 78.8,43.8 125.3,74.8 18.9,438.8 2.3,368.6 -170,667l-544.3 1951.1c-157.1,417.7 -330,793.7 -426.7,1253.1l-262.8 1442.5 -0.2 0.2z"/>
    <path class="fil1 str0" d="M18781.7 8845.4c-80.1,164 -638.1,710.6 -807.1,871 -110.5,104.8 -789.1,794.5 -819.2,840.6l-123.6 298.4c595.8,229.6 1610,-362.6 -365.9,1473.3 -484.1,449.7 -865.9,850.1 -1338.4,1315.1 -384.5,378.4 -2571.3,2479.2 -2649.1,2647.3 292.9,-65.5 1026.1,-678.5 1219,-892.2 309.7,-343.1 -101.7,-132.9 612.8,-738 140.8,-119.6 215.7,-228.4 333.6,-343.6l1361.7 -1353.8c269.2,-290.4 451.1,-362 728.7,-633 273.7,-267.1 368.7,-419.6 673.2,-684 80.7,-70.2 86.7,-71 174.5,-142.3l243.9 -402.9c81.9,-329.2 -157.8,-251 -673.6,-347.3 55.1,-229 284.9,-437.1 450.7,-609.9 436.3,-455 418.8,-308.6 568.6,-483.8l1029.5 -1124.4c158.7,-197.8 310.2,-387.6 524,-526.1 645.4,-417.9 -119.4,-216.1 1127.2,-987.3 300.3,-185.7 275.3,-297.3 509.6,-583.6 1510.4,-44.5 938.7,659.6 186.4,1143.6 -150.8,96.9 -702.4,600.1 -742.1,795.9 266.3,-61.5 789.8,-639.8 998.2,-801 856.7,-662.6 1105.5,-843.7 626.2,-1141.5 -82.7,-51.3 -170.4,-99.5 -257.8,-169.5 -178.3,-143.1 -317.2,-276.4 -568.9,-313.9 -142.4,16.6 -1234.1,1135.9 -1468.3,1372.4l-944.2 982.9c-75.5,95.7 -71.4,114.7 -155.2,207.3l-454.6 330.3 0.2 0z"/>
    <path class="fil2" d="M10963.3 16997.4c-303.5,303.1 -1055.2,3339.1 -1194.4,3632 -132.9,279.5 8.3,90.5 -149.8,162.1 63.4,291.8 -92.6,396.9 -83.3,757.6 232.1,-60.1 1733.5,-1295.1 2000.8,-1515.1 334.2,-275.3 484.9,-450.3 733.7,-453.9 48.4,-224.1 289.7,-371.3 523.4,-528.5 215.8,-145.1 354.8,-290.2 540.1,-449l1175.3 -884.5c232,-175.5 283.9,-288.2 567.5,-486.5 179.6,-125.3 1521.9,-1185.7 1553.6,-1389.4 -364.7,-5.5 -735,-16.2 -1017.7,-105 47.5,-548 918.1,-822 1140.1,-1355.9 -212,40.3 -180.9,29.8 -333,156.3 -40.1,33.1 -142.4,141.4 -186.4,186.9 -678.6,703.3 -509.6,209.8 -802.1,679.6 -185.8,298.7 -210.7,195.8 -200.8,438.3 395.7,163.8 390.2,93 675.8,145.1l216.4 67.2c-75.2,318.1 -602.4,543.2 -1032.7,959.6 -54.4,52.7 -754.5,477.8 -1461.3,1150.3 -487.3,463.2 -1429.7,1063.6 -1493.5,1121.1 -118.1,106.7 -193.3,213.6 -302.2,314.6l-1149.3 847.2c-241.8,164.8 -158.8,153 -572.7,142.6 -30.4,-1125.8 163.6,-479.1 392.5,-1866 91.6,-556.2 473.5,-1058.9 460,-1726.7z"/>
    <path class="fil1 str0" d="M17397.9 13766.1c329.1,-135.1 2539,-2295.5 2851.2,-2589.2 386.6,-364.2 804.1,-659 842.2,-956.6 -507.1,-36 -1400.9,38.1 -1788.9,-71.6 11.3,-310.2 598.9,-716.9 841.6,-908.1 178.4,-140.9 267.1,-258.9 450.5,-414.1 198.8,-168.4 370.1,-204.6 411.8,-447.9 -201.2,58.2 -409.9,232.6 -561.8,373l-1004.9 856.2c-159.7,136 -403.4,317.3 -409.8,559.7 179.5,99 1049.7,331.1 1296.6,519.7 -23.7,271.5 -118.5,301.5 -314.4,460.5 -147.2,119.3 -271.7,206 -417.1,327.8 -3.6,3 -62.9,55.3 -99,86.1l-285.6 263c-7.7,9.8 -17.7,24.6 -24.9,34.8 -607,824.4 -506.5,190.1 -757.1,664.5 -153.6,290 -95.3,195.8 -319.1,422.9 -152.4,154.7 -244.6,217.8 -388.7,355.5 -180.3,171.6 -293.9,213.9 -322.3,463.8l-0.3 0z"/>
    <path class="fil1 str0" d="M11918.9 7148.8l-33 457.8 1641.9 -105.6c-57.3,-123.5 183.8,-147.5 -663.9,-97.2 -247.8,14.6 -485.7,12.9 -733.1,-1.3 20.8,-382.1 414.3,-902.3 612.1,-1260.8 271.1,-489.5 276.2,-1165.8 937,-1668.8 364.9,-277.8 1459.8,-231.5 1895.5,-192.8 1594,141.8 -117.1,1467 -196.9,2417.8l694.1 -1169.4c195.9,-363.9 591.3,-964.8 604.7,-1333.4 -690.5,6.8 -1374.4,-94.3 -2015.9,-39 -1415.3,121.5 -1110.9,-37.5 -1715.6,1181.5l-896.1 1689.4c-89,120.9 -37.1,71.6 -130.9,121.8l0.1 0z"/>
    <path class="fil3" d="M9619.1 20791.4c-234.4,107 -262.2,356.3 -234.7,633.6 15.4,157.4 -24.9,-49.4 17.3,108.3 62.1,231.5 92.6,102 117.2,151.6 7.3,14.9 38.5,9.4 48.4,9.1 111.6,-3.4 -21.2,40.3 138.9,-17 15,-5.2 163.2,-112.7 185.3,-130 156.6,-122.3 220,-147 371.4,-254.3 141.4,-99.8 170.9,-176.6 347,-274.8 271.1,-151.6 188.3,-12.3 365.9,-264.6 154,-219.2 717.1,-627.8 998.2,-854.3 263.5,-212.9 242,-160.2 296.4,-319 -248.8,3.5 -399.5,178.5 -733.7,453.9 -267.3,220 -1768.7,1454.9 -2000.8,1515.1 -9.3,-360.7 146.7,-465.8 83.3,-757.6l-0.1 0z"/>
    <path class="fil4" d="M19809.8 14772.1c3.9,-377.1 -274.6,-24.6 -578.8,-446.2 70.1,-87.8 100.2,-102.8 177.4,-191.5 154.3,-176.9 83.8,-30.1 143.4,-258.3 -192.8,108 -276,185.2 -445.7,347.3 -162.9,155.5 -300.5,188.6 -259.6,446.2l963.2 102.6 0.1 -0.1z"/>
   </g>
  </g>
 </g>
</svg>
